<svg width="40" height="40" viewBox="0 0 40 40" fill="none" xmlns="http://www.w3.org/2000/svg">
<rect width="40" height="40" rx="20" fill="white"/>
<path d="M23.6848 12.6957H26.2935C26.5815 12.6957 26.8152 12.4619 26.8152 12.1739V8.65896C26.8152 8.38557 26.605 8.15809 26.3326 8.13878C25.5025 8.07983 23.881 8 22.7149 8C19.5109 8 17.4239 9.92 17.4239 13.4094V16.8696H13.7717C13.4837 16.8696 13.25 17.1033 13.25 17.3913V21.0435C13.25 21.3315 13.4837 21.5652 13.7717 21.5652H17.4239V31.4783C17.4239 31.7663 17.6577 32 17.9457 32H21.5978C21.8858 32 22.1196 31.7663 22.1196 31.4783V21.5652H25.8876C26.1537 21.5652 26.377 21.3654 26.4062 21.1009L26.8121 17.4487C26.8465 17.1398 26.6044 16.8696 26.2935 16.8696H22.1196V14.2609C22.1196 13.3963 22.8203 12.6957 23.6848 12.6957Z" fill="#606060"/>
</svg>
