<svg width="149" height="30" viewBox="0 0 149 30" fill="none" xmlns="http://www.w3.org/2000/svg">
<path fill-rule="evenodd" clip-rule="evenodd" d="M32.1849 29.3867H36.1032V8.51958H32.1849V29.3867ZM31.5471 2.55127C31.5471 1.13907 32.6861 0 34.1442 0C35.5566 0 36.6955 1.13907 36.6955 2.55127C36.6955 3.96353 35.5566 5.14823 34.1442 5.14823C32.6861 5.14823 31.5471 3.96353 31.5471 2.55127ZM60.3875 25.3773L60.3849 25.3805C60.0213 25.8349 59.6576 26.2893 59.2484 26.6984C57.1982 28.7486 54.4646 29.8422 51.5485 29.8422C48.6326 29.8422 45.8534 28.7486 43.8034 26.6984C41.7531 24.6027 40.6141 21.8692 40.6141 18.953C40.6141 16.037 41.7531 13.3037 43.8034 11.2079C45.8534 9.15768 48.6326 8.06408 51.5485 8.06408C54.4646 8.06408 57.1982 9.15768 59.2484 11.2079C59.6586 11.618 60.023 12.0281 60.3421 12.4835L57.1982 14.8073C55.9227 13.0761 53.8723 11.8915 51.5485 11.8915C47.676 11.8915 44.5324 15.0805 44.5324 18.953C44.5324 22.8258 47.676 26.0152 51.5485 26.0152C53.8723 26.0152 55.9227 24.8305 57.1982 23.0538L60.3875 25.3773ZM73.0069 11.8915C76.8796 11.8915 80.0234 15.0804 80.0234 18.953C80.0234 22.8259 76.8796 26.0152 73.0069 26.0152C69.1345 26.0152 65.9908 22.8259 65.9908 18.953C65.9908 15.0804 69.1345 11.8915 73.0069 11.8915ZM83.9415 8.51956H80.0234V10.9344C78.0644 9.29417 75.604 8.06411 73.007 8.06411C70.0911 8.06411 67.3576 9.15766 65.2619 11.208C63.2115 13.3037 62.0725 16.037 62.0725 18.953C62.0725 21.8692 63.2115 24.6027 65.2619 26.6983C67.3576 28.7486 70.0911 29.8422 73.007 29.8422C75.604 29.8422 78.0644 28.6121 80.0234 26.9719V29.3867H83.9415V8.51956ZM104.033 23.2359C104.033 24.4206 103.714 25.5592 103.031 26.5163C102.393 27.473 101.481 28.2021 100.251 28.7941C99.1581 29.2953 97.8367 29.5688 96.5154 29.5688C95.7867 29.5688 95.1028 29.4777 94.3741 29.3411C92.0963 28.8857 89.9549 27.8831 88.1322 26.3338L90.5926 23.646C93.0074 25.6963 95.0577 26.1063 96.3334 26.1063C97.1989 26.1063 98.019 25.9242 98.7481 25.6052C99.3402 25.3318 100.388 24.6481 100.388 23.2359C100.388 21.8233 99.1581 20.9577 96.3334 20.4566C96.3115 20.4493 96.2045 20.4269 96.035 20.3914L96.0347 20.3913C95.1443 20.2047 92.5297 19.6568 91.4583 19.0444C89.5445 17.9508 88.5424 16.2651 88.5424 14.1693C88.5424 13.0302 88.9069 11.937 89.5445 10.9799C90.137 10.1602 90.9571 9.5222 92.1414 8.97527C93.235 8.47407 94.4196 8.20099 95.7408 8.20099C96.2423 8.20099 96.7889 8.24646 97.2899 8.29209C99.2947 8.61097 101.254 9.47674 102.894 10.7979L100.616 13.4406C98.5656 11.8456 96.7889 11.618 95.9233 11.618C95.1028 11.618 94.3286 11.7544 93.6906 12.0735C92.7795 12.529 92.1873 13.3492 92.1873 14.1693C92.1873 15.536 93.2806 16.2651 96.0599 16.8576C96.1054 16.8576 99.8413 17.6773 100.889 18.2699C102.12 18.9078 102.575 19.409 103.076 20.0466C103.714 20.9577 104.033 22.0512 104.033 23.2359ZM117.974 11.8915C121.846 11.8915 124.99 15.0804 124.99 18.953C124.99 22.8259 121.846 26.0152 117.974 26.0152C114.101 26.0152 110.957 22.8259 110.957 18.953C110.957 15.0804 114.101 11.8915 117.974 11.8915ZM128.909 8.51956H124.99V10.9344C123.031 9.29417 120.571 8.06411 117.974 8.06411C115.058 8.06411 112.325 9.15766 110.229 11.208C108.178 13.3037 107.039 16.037 107.039 18.953C107.039 21.8692 108.178 24.6027 110.229 26.6983C112.325 28.7486 115.058 29.8422 117.974 29.8422C120.571 29.8422 123.031 28.6121 124.99 26.9719V29.3867H128.909V8.51956ZM149 23.2359C149 24.4206 148.681 25.5592 147.997 26.5163C147.36 27.473 146.449 28.2021 145.218 28.7941C144.125 29.2953 142.804 29.5688 141.482 29.5688C140.754 29.5688 140.07 29.4777 139.341 29.3411C137.063 28.8857 134.922 27.8831 133.099 26.3338L135.559 23.646C137.974 25.6963 140.024 26.1063 141.3 26.1063C142.166 26.1063 142.986 25.9242 143.715 25.6052C144.307 25.3318 145.355 24.6481 145.355 23.2359C145.355 21.8233 144.125 20.9577 141.3 20.4566C141.278 20.4493 141.171 20.4268 141 20.3911C140.109 20.2042 137.496 19.6565 136.425 19.0444C134.512 17.9508 133.509 16.2651 133.509 14.1693C133.509 13.0302 133.874 11.937 134.512 10.9799C135.104 10.1602 135.924 9.5222 137.108 8.97527C138.202 8.47407 139.386 8.20099 140.708 8.20099C141.209 8.20099 141.756 8.24646 142.257 8.29209C144.261 8.61097 146.221 9.47674 147.861 10.7979L145.583 13.4406C143.533 11.8456 141.756 11.618 140.89 11.618C140.07 11.618 139.296 11.7544 138.658 12.0735C137.747 12.529 137.154 13.3492 137.154 14.1693C137.154 15.536 138.248 16.2651 141.027 16.8576C141.072 16.8576 144.808 17.6773 145.856 18.2699C147.086 18.9078 147.542 19.409 148.043 20.0466C148.681 20.9577 149 22.0512 149 23.2359ZM22.7355 11.1923V17.1021L11.3681 7.10449L0 17.1021V10.8109L11.3681 0.299013L22.7355 11.1923Z" fill="white"/>
<path fill-rule="evenodd" clip-rule="evenodd" d="M11.3978 12.3787L0.029541 22.1975V28.4193L11.3978 18.4208V18.4201L22.7651 28.4193V22.1954L11.3978 12.3787Z" fill="#B4B4B3"/>
</svg>
