<svg width="195" height="25" viewBox="0 0 195 25" fill="none" xmlns="http://www.w3.org/2000/svg">
<path fill-rule="evenodd" clip-rule="evenodd" d="M21.8887 10.8458H24.058C24.1668 10.8458 24.2551 10.7575 24.2551 10.6487V0.788954C24.2551 0.353136 23.902 0 23.4664 0H16.1702C16.0612 0 15.9729 0.0883384 15.9729 0.197347V2.36621C15.9729 2.475 16.0612 2.56356 16.1702 2.56356H21.3959C21.5593 2.56356 21.6916 2.69606 21.6916 2.85925V10.6487C21.6916 10.7575 21.7799 10.8458 21.8887 10.8458ZM0.19726 13.4094H2.36634C2.47535 13.4094 2.56347 13.4975 2.56347 13.6066V21.3958C2.56347 21.5592 2.69598 21.6915 2.85938 21.6915L8.08506 21.6917C8.19407 21.6917 8.2824 21.7803 8.2824 21.889V24.0579C8.2824 24.1669 8.19407 24.2553 8.08506 24.2553L0.788867 24.255C0.353267 24.255 0.000130549 23.9019 0.000130549 23.4663V13.6066C0.000130549 13.4975 0.088469 13.4094 0.19726 13.4094ZM13.4093 24.058V21.8887C13.4093 21.7797 13.4977 21.6916 13.6067 21.6916H21.3959C21.5593 21.6916 21.6916 21.5593 21.6916 21.3959L21.6918 16.17C21.6918 16.0612 21.7801 15.9729 21.8889 15.9729H24.058C24.1668 15.9729 24.2551 16.0612 24.2551 16.17L24.2549 23.4664C24.2549 23.902 23.9018 24.2551 23.4662 24.2551H13.6067C13.4977 24.2551 13.4093 24.1668 13.4093 24.058ZM10.8458 0.197478V2.36656C10.8458 2.47557 10.7575 2.56369 10.6487 2.56369H2.85925C2.69606 2.56369 2.56356 2.69619 2.56356 2.85938V8.08527C2.56356 8.19428 2.47522 8.2824 2.36621 8.2824H0.197347C0.0883384 8.2824 0 8.19428 0 8.08527L0.000217582 0.789084C0.000217582 0.353484 0.353354 0.000348132 0.788954 0.000348132H10.6487C10.7575 0.000348132 10.8458 0.088469 10.8458 0.197478ZM46.9684 6.70454L44.7993 6.70476C44.6905 6.70476 44.6022 6.7931 44.6022 6.90189V17.353C44.6022 17.462 44.6905 17.5506 44.7993 17.5506L46.9686 17.5504C47.0774 17.5504 47.1657 17.4618 47.1657 17.353V6.90167C47.1657 6.79288 47.0774 6.70454 46.9684 6.70454ZM80.511 6.70476H82.68C82.789 6.70476 82.8772 6.79288 82.8772 6.90189V14.6911C82.8772 14.8545 83.0097 14.9868 83.1731 14.9868L88.3988 14.987C88.5078 14.987 88.5961 15.0754 88.5961 15.1844V17.3532C88.5961 17.462 88.5078 17.5506 88.3988 17.5506L81.1026 17.5504C80.667 17.5504 80.3138 17.1972 80.3138 16.7616V6.90189C80.3138 6.79288 80.4022 6.70476 80.511 6.70476ZM94.5848 6.70476H92.4157C92.307 6.70476 92.2186 6.79288 92.2186 6.90189V16.7616C92.2186 17.1972 92.5717 17.5504 93.0073 17.5504L100.304 17.5506C100.413 17.5506 100.501 17.462 100.501 17.3532V15.1844C100.501 15.0754 100.413 14.987 100.304 14.987L95.0779 14.9868C94.9145 14.9868 94.782 14.8545 94.782 14.6911V6.90189C94.782 6.79288 94.6938 6.70476 94.5848 6.70476ZM32.7346 6.70476H34.9039C35.0127 6.70476 35.1011 6.79288 35.1011 6.90189V14.6911C35.1011 14.8545 35.2334 14.9868 35.3968 14.9868L40.6224 14.987C40.7314 14.987 40.8198 15.0754 40.8198 15.1844V17.3532C40.8198 17.462 40.7314 17.5506 40.6224 17.5506L33.3262 17.5504C32.8906 17.5504 32.5375 17.1972 32.5375 16.7616V6.90189C32.5375 6.79288 32.6258 6.70476 32.7346 6.70476ZM76.0404 6.90163V12.1275C76.0404 15.5094 73.4801 17.846 70.3217 17.846C67.1635 17.846 64.603 15.5094 64.603 12.1275V6.90163C64.603 6.79283 64.6913 6.7045 64.8001 6.7045H66.9694C67.0784 6.7045 67.1665 6.79283 67.1665 6.90163V12.1275C67.1665 14.302 68.5791 15.2827 70.3217 15.2827C72.0643 15.2827 73.4769 14.302 73.4769 12.1275V6.90163C73.4769 6.79283 73.5652 6.7045 73.6742 6.7045H75.8433C75.9521 6.7045 76.0404 6.79283 76.0404 6.90163ZM60.5215 6.70454C60.6303 6.70454 60.7187 6.79288 60.7187 6.90167V9.07097C60.7187 9.17976 60.6303 9.2681 60.5215 9.2681H55.2959C55.1325 9.2681 55.0002 9.4006 55.0002 9.56401V10.7472C55.0002 10.8018 55.0441 10.8458 55.0987 10.8458H60.5215C60.6303 10.8458 60.7187 10.9339 60.7187 11.0429V13.2122C60.7187 13.321 60.6303 13.4093 60.5215 13.4093H55.0987C55.0441 13.4093 55.0002 13.4537 55.0002 13.5081V17.353C55.0002 17.462 54.9118 17.5504 54.8028 17.5506H52.6337C52.5247 17.5506 52.4364 17.462 52.4364 17.353V7.49349C52.4364 7.05789 52.7895 6.70476 53.2253 6.70476L60.5215 6.70454ZM114.06 6.39834C110.809 6.39834 108.185 9.12421 108.36 12.4186C108.506 15.3921 110.969 17.7681 113.958 17.8264C115.503 17.8556 116.917 17.2727 117.966 16.2959C118.039 16.223 118.039 16.0918 117.966 16.019L117.121 15.1734C117.048 15.1005 116.931 15.1005 116.858 15.1734C116.086 15.8732 115.051 16.2814 113.928 16.2522C111.786 16.1793 110.022 14.4593 109.934 12.3164C109.818 9.94036 111.713 7.97254 114.06 7.97254C115.138 7.97254 116.115 8.38073 116.858 9.05132C116.931 9.12421 117.048 9.12421 117.121 9.05132L117.966 8.20601C118.039 8.13312 118.039 8.00192 117.966 7.92903C116.931 6.98146 115.576 6.39834 114.06 6.39834ZM122.077 12.1271C122.077 14.4156 123.928 16.2666 126.216 16.2666C128.505 16.2666 130.356 14.4156 130.356 12.1271C130.356 9.83836 128.505 7.98738 126.216 7.98738C123.928 7.98738 122.077 9.83836 122.077 12.1271ZM131.93 12.1271C131.93 15.2901 129.379 17.841 126.216 17.841C123.053 17.841 120.502 15.2901 120.502 12.1271C120.502 8.96389 123.053 6.41296 126.216 6.41296C129.379 6.41296 131.93 8.96389 131.93 12.1271ZM134.921 6.89412V17.3455C134.921 17.4621 135.009 17.5493 135.126 17.5493H136.306C136.408 17.5493 136.496 17.4621 136.496 17.3455V9.28448C136.496 9.25532 136.54 9.22638 136.569 9.25532L143.303 17.4038C143.39 17.4913 143.492 17.5493 143.609 17.5493H144.804C144.921 17.5493 145.008 17.4621 145.008 17.3455V6.89412C145.008 6.79207 144.921 6.70461 144.804 6.70461H143.624C143.522 6.70461 143.434 6.79207 143.434 6.89412V14.9695C143.434 14.9986 143.376 15.0132 143.361 14.9986L136.612 6.83581C136.54 6.74834 136.437 6.70461 136.306 6.70461H135.126C135.009 6.70461 134.921 6.79207 134.921 6.89412ZM148.758 17.3455V6.89412C148.758 6.79207 148.845 6.70461 148.961 6.70461H150.142C150.273 6.70461 150.376 6.74834 150.448 6.83581L157.197 14.9986C157.212 15.0132 157.27 14.9986 157.27 14.9695V6.89412C157.27 6.79207 157.358 6.70461 157.46 6.70461H158.64C158.757 6.70461 158.844 6.79207 158.844 6.89412V17.3455C158.844 17.4621 158.757 17.5493 158.64 17.5493H157.445C157.329 17.5493 157.227 17.4913 157.139 17.4038L150.405 9.25532C150.376 9.22638 150.332 9.25532 150.332 9.28448V17.3455C150.332 17.4621 150.244 17.5493 150.142 17.5493H148.961C148.845 17.5493 148.758 17.4621 148.758 17.3455ZM162.43 7.49167V16.7624C162.43 17.1998 162.78 17.5494 163.217 17.5494H170.345C170.447 17.5494 170.535 17.4622 170.535 17.3455V16.1647C170.535 16.0627 170.447 15.9752 170.345 15.9752H164.31C164.135 15.9752 164.004 15.844 164.004 15.6693V13.0017C164.004 12.9432 164.048 12.8997 164.106 12.8997H170.359C170.462 12.8997 170.549 12.8122 170.549 12.6956V11.5148C170.549 11.4127 170.462 11.3255 170.359 11.3255H164.106C164.048 11.3255 164.004 11.2817 164.004 11.2232V8.58502C164.004 8.40986 164.135 8.27888 164.31 8.27888H170.359C170.462 8.27888 170.549 8.19119 170.549 8.08936V6.90855C170.549 6.79214 170.462 6.70445 170.359 6.70445H163.217C162.78 6.70445 162.43 7.05433 162.43 7.49167ZM173.409 12.4186C173.234 9.12421 175.858 6.39834 179.108 6.39834C180.625 6.39834 181.98 6.98146 183.015 7.92903C183.088 8.00192 183.088 8.13312 183.015 8.20601L182.17 9.05132C182.097 9.12421 181.98 9.12421 181.907 9.05132C181.164 8.38073 180.187 7.97254 179.108 7.97254C176.762 7.97254 174.867 9.94036 174.983 12.3164C175.071 14.4593 176.834 16.1793 178.977 16.2522C180.1 16.2814 181.135 15.8732 181.907 15.1734C181.98 15.1005 182.097 15.1005 182.17 15.1734L183.015 16.019C183.088 16.0918 183.088 16.223 183.015 16.2959C181.966 17.2727 180.552 17.8556 179.007 17.8264C176.018 17.7681 173.555 15.3921 173.409 12.4186ZM189.578 8.33713V17.3455C189.578 17.4621 189.665 17.5493 189.782 17.5493H190.962C191.064 17.5493 191.152 17.4621 191.152 17.3455V8.33713C191.152 8.29339 191.196 8.23508 191.254 8.23508H194.811C194.913 8.23508 195 8.14761 195 8.04557V6.90848C195 6.79207 194.913 6.70461 194.811 6.70461H185.934C185.817 6.70461 185.729 6.79207 185.729 6.90848V8.04557C185.729 8.14761 185.817 8.23508 185.934 8.23508H189.476C189.534 8.23508 189.578 8.29339 189.578 8.33713Z" fill="white"/>
</svg>
