<svg width="40" height="40" viewBox="0 0 40 40" fill="none" xmlns="http://www.w3.org/2000/svg">
<rect width="40" height="40" rx="20" fill="white"/>
<path d="M32 12.5582C31.1153 12.951 30.1669 13.2147 29.17 13.3344C30.1875 12.7246 30.9694 11.7595 31.336 10.611C30.3858 11.174 29.329 11.5836 28.2086 11.8044C27.3107 10.8467 26.0313 10.25 24.6154 10.25C21.8957 10.25 19.6904 12.4534 19.6904 15.1731C19.6904 15.5584 19.7353 15.9344 19.8195 16.2954C15.7269 16.0896 12.1001 14.1294 9.67033 11.1497C9.24573 11.8792 9.00444 12.7246 9.00444 13.6262C9.00444 15.3339 9.87234 16.8415 11.1948 17.7263C10.3867 17.7001 9.62731 17.4775 8.96329 17.109C8.96329 17.1296 8.96329 17.1502 8.96329 17.1707C8.96329 19.5575 10.6617 21.5458 12.9119 22.0003C12.5004 22.1125 12.0645 22.1724 11.6156 22.1724C11.2976 22.1724 10.989 22.1424 10.6879 22.0826C11.3163 24.0372 13.1344 25.4644 15.2874 25.5037C13.6039 26.8242 11.4809 27.6098 9.17278 27.6098C8.77437 27.6098 8.38345 27.5874 8 27.5406C10.1772 28.9397 12.766 29.7534 15.5473 29.7534C24.6042 29.7534 29.5572 22.2509 29.5572 15.7454C29.5572 15.5322 29.5516 15.3171 29.5441 15.1076C30.5055 14.4137 31.3397 13.5458 32 12.5582Z" fill="#606060"/>
</svg>
